<svg version="1.1" xmlns="http://www.w3.org/2000/svg" xmlns:xlink="http://www.w3.org/1999/xlink" xmlns:ev="http://www.w3.org/2001/xml-events" shape-rendering="crispEdges" viewBox="0 0 222 222">
<rect width="6" height="6" x="0" y="0" style="fill:#000"/><rect width="6" height="6" x="6" y="0" style="fill:#000"/><rect width="6" height="6" x="12" y="0" style="fill:#000"/><rect width="6" height="6" x="18" y="0" style="fill:#000"/><rect width="6" height="6" x="24" y="0" style="fill:#000"/><rect width="6" height="6" x="30" y="0" style="fill:#000"/><rect width="6" height="6" x="36" y="0" style="fill:#000"/><rect width="6" height="6" x="54" y="0" style="fill:#000"/><rect width="6" height="6" x="60" y="0" style="fill:#000"/><rect width="6" height="6" x="66" y="0" style="fill:#000"/><rect width="6" height="6" x="78" y="0" style="fill:#000"/><rect width="6" height="6" x="84" y="0" style="fill:#000"/><rect width="6" height="6" x="102" y="0" style="fill:#000"/><rect width="6" height="6" x="108" y="0" style="fill:#000"/><rect width="6" height="6" x="120" y="0" style="fill:#000"/><rect width="6" height="6" x="126" y="0" style="fill:#000"/><rect width="6" height="6" x="138" y="0" style="fill:#000"/><rect width="6" height="6" x="144" y="0" style="fill:#000"/><rect width="6" height="6" x="156" y="0" style="fill:#000"/><rect width="6" height="6" x="168" y="0" style="fill:#000"/><rect width="6" height="6" x="180" y="0" style="fill:#000"/><rect width="6" height="6" x="186" y="0" style="fill:#000"/><rect width="6" height="6" x="192" y="0" style="fill:#000"/><rect width="6" height="6" x="198" y="0" style="fill:#000"/><rect width="6" height="6" x="204" y="0" style="fill:#000"/><rect width="6" height="6" x="210" y="0" style="fill:#000"/><rect width="6" height="6" x="216" y="0" style="fill:#000"/>
<rect width="6" height="6" x="0" y="6" style="fill:#000"/><rect width="6" height="6" x="36" y="6" style="fill:#000"/><rect width="6" height="6" x="54" y="6" style="fill:#000"/><rect width="6" height="6" x="60" y="6" style="fill:#000"/><rect width="6" height="6" x="72" y="6" style="fill:#000"/><rect width="6" height="6" x="90" y="6" style="fill:#000"/><rect width="6" height="6" x="96" y="6" style="fill:#000"/><rect width="6" height="6" x="108" y="6" style="fill:#000"/><rect width="6" height="6" x="132" y="6" style="fill:#000"/><rect width="6" height="6" x="144" y="6" style="fill:#000"/><rect width="6" height="6" x="168" y="6" style="fill:#000"/><rect width="6" height="6" x="180" y="6" style="fill:#000"/><rect width="6" height="6" x="216" y="6" style="fill:#000"/>
<rect width="6" height="6" x="0" y="12" style="fill:#000"/><rect width="6" height="6" x="12" y="12" style="fill:#000"/><rect width="6" height="6" x="18" y="12" style="fill:#000"/><rect width="6" height="6" x="24" y="12" style="fill:#000"/><rect width="6" height="6" x="36" y="12" style="fill:#000"/><rect width="6" height="6" x="48" y="12" style="fill:#000"/><rect width="6" height="6" x="60" y="12" style="fill:#000"/><rect width="6" height="6" x="66" y="12" style="fill:#000"/><rect width="6" height="6" x="96" y="12" style="fill:#000"/><rect width="6" height="6" x="120" y="12" style="fill:#000"/><rect width="6" height="6" x="126" y="12" style="fill:#000"/><rect width="6" height="6" x="132" y="12" style="fill:#000"/><rect width="6" height="6" x="138" y="12" style="fill:#000"/><rect width="6" height="6" x="150" y="12" style="fill:#000"/><rect width="6" height="6" x="156" y="12" style="fill:#000"/><rect width="6" height="6" x="162" y="12" style="fill:#000"/><rect width="6" height="6" x="180" y="12" style="fill:#000"/><rect width="6" height="6" x="192" y="12" style="fill:#000"/><rect width="6" height="6" x="198" y="12" style="fill:#000"/><rect width="6" height="6" x="204" y="12" style="fill:#000"/><rect width="6" height="6" x="216" y="12" style="fill:#000"/>
<rect width="6" height="6" x="0" y="18" style="fill:#000"/><rect width="6" height="6" x="12" y="18" style="fill:#000"/><rect width="6" height="6" x="18" y="18" style="fill:#000"/><rect width="6" height="6" x="24" y="18" style="fill:#000"/><rect width="6" height="6" x="36" y="18" style="fill:#000"/><rect width="6" height="6" x="48" y="18" style="fill:#000"/><rect width="6" height="6" x="78" y="18" style="fill:#000"/><rect width="6" height="6" x="84" y="18" style="fill:#000"/><rect width="6" height="6" x="90" y="18" style="fill:#000"/><rect width="6" height="6" x="102" y="18" style="fill:#000"/><rect width="6" height="6" x="108" y="18" style="fill:#000"/><rect width="6" height="6" x="138" y="18" style="fill:#000"/><rect width="6" height="6" x="144" y="18" style="fill:#000"/><rect width="6" height="6" x="150" y="18" style="fill:#000"/><rect width="6" height="6" x="162" y="18" style="fill:#000"/><rect width="6" height="6" x="168" y="18" style="fill:#000"/><rect width="6" height="6" x="180" y="18" style="fill:#000"/><rect width="6" height="6" x="192" y="18" style="fill:#000"/><rect width="6" height="6" x="198" y="18" style="fill:#000"/><rect width="6" height="6" x="204" y="18" style="fill:#000"/><rect width="6" height="6" x="216" y="18" style="fill:#000"/>
<rect width="6" height="6" x="0" y="24" style="fill:#000"/><rect width="6" height="6" x="12" y="24" style="fill:#000"/><rect width="6" height="6" x="18" y="24" style="fill:#000"/><rect width="6" height="6" x="24" y="24" style="fill:#000"/><rect width="6" height="6" x="36" y="24" style="fill:#000"/><rect width="6" height="6" x="60" y="24" style="fill:#000"/><rect width="6" height="6" x="78" y="24" style="fill:#000"/><rect width="6" height="6" x="90" y="24" style="fill:#000"/><rect width="6" height="6" x="96" y="24" style="fill:#000"/><rect width="6" height="6" x="108" y="24" style="fill:#000"/><rect width="6" height="6" x="120" y="24" style="fill:#000"/><rect width="6" height="6" x="138" y="24" style="fill:#000"/><rect width="6" height="6" x="144" y="24" style="fill:#000"/><rect width="6" height="6" x="150" y="24" style="fill:#000"/><rect width="6" height="6" x="156" y="24" style="fill:#000"/><rect width="6" height="6" x="180" y="24" style="fill:#000"/><rect width="6" height="6" x="192" y="24" style="fill:#000"/><rect width="6" height="6" x="198" y="24" style="fill:#000"/><rect width="6" height="6" x="204" y="24" style="fill:#000"/><rect width="6" height="6" x="216" y="24" style="fill:#000"/>
<rect width="6" height="6" x="0" y="30" style="fill:#000"/><rect width="6" height="6" x="36" y="30" style="fill:#000"/><rect width="6" height="6" x="54" y="30" style="fill:#000"/><rect width="6" height="6" x="60" y="30" style="fill:#000"/><rect width="6" height="6" x="78" y="30" style="fill:#000"/><rect width="6" height="6" x="84" y="30" style="fill:#000"/><rect width="6" height="6" x="90" y="30" style="fill:#000"/><rect width="6" height="6" x="96" y="30" style="fill:#000"/><rect width="6" height="6" x="102" y="30" style="fill:#000"/><rect width="6" height="6" x="120" y="30" style="fill:#000"/><rect width="6" height="6" x="126" y="30" style="fill:#000"/><rect width="6" height="6" x="132" y="30" style="fill:#000"/><rect width="6" height="6" x="150" y="30" style="fill:#000"/><rect width="6" height="6" x="156" y="30" style="fill:#000"/><rect width="6" height="6" x="180" y="30" style="fill:#000"/><rect width="6" height="6" x="216" y="30" style="fill:#000"/>
<rect width="6" height="6" x="0" y="36" style="fill:#000"/><rect width="6" height="6" x="6" y="36" style="fill:#000"/><rect width="6" height="6" x="12" y="36" style="fill:#000"/><rect width="6" height="6" x="18" y="36" style="fill:#000"/><rect width="6" height="6" x="24" y="36" style="fill:#000"/><rect width="6" height="6" x="30" y="36" style="fill:#000"/><rect width="6" height="6" x="36" y="36" style="fill:#000"/><rect width="6" height="6" x="48" y="36" style="fill:#000"/><rect width="6" height="6" x="60" y="36" style="fill:#000"/><rect width="6" height="6" x="72" y="36" style="fill:#000"/><rect width="6" height="6" x="84" y="36" style="fill:#000"/><rect width="6" height="6" x="96" y="36" style="fill:#000"/><rect width="6" height="6" x="108" y="36" style="fill:#000"/><rect width="6" height="6" x="120" y="36" style="fill:#000"/><rect width="6" height="6" x="132" y="36" style="fill:#000"/><rect width="6" height="6" x="144" y="36" style="fill:#000"/><rect width="6" height="6" x="156" y="36" style="fill:#000"/><rect width="6" height="6" x="168" y="36" style="fill:#000"/><rect width="6" height="6" x="180" y="36" style="fill:#000"/><rect width="6" height="6" x="186" y="36" style="fill:#000"/><rect width="6" height="6" x="192" y="36" style="fill:#000"/><rect width="6" height="6" x="198" y="36" style="fill:#000"/><rect width="6" height="6" x="204" y="36" style="fill:#000"/><rect width="6" height="6" x="210" y="36" style="fill:#000"/><rect width="6" height="6" x="216" y="36" style="fill:#000"/>
<rect width="6" height="6" x="72" y="42" style="fill:#000"/><rect width="6" height="6" x="78" y="42" style="fill:#000"/><rect width="6" height="6" x="102" y="42" style="fill:#000"/><rect width="6" height="6" x="126" y="42" style="fill:#000"/><rect width="6" height="6" x="132" y="42" style="fill:#000"/><rect width="6" height="6" x="138" y="42" style="fill:#000"/><rect width="6" height="6" x="144" y="42" style="fill:#000"/><rect width="6" height="6" x="156" y="42" style="fill:#000"/><rect width="6" height="6" x="162" y="42" style="fill:#000"/><rect width="6" height="6" x="168" y="42" style="fill:#000"/>
<rect width="6" height="6" x="18" y="48" style="fill:#000"/><rect width="6" height="6" x="24" y="48" style="fill:#000"/><rect width="6" height="6" x="36" y="48" style="fill:#000"/><rect width="6" height="6" x="42" y="48" style="fill:#000"/><rect width="6" height="6" x="54" y="48" style="fill:#000"/><rect width="6" height="6" x="78" y="48" style="fill:#000"/><rect width="6" height="6" x="102" y="48" style="fill:#000"/><rect width="6" height="6" x="108" y="48" style="fill:#000"/><rect width="6" height="6" x="114" y="48" style="fill:#000"/><rect width="6" height="6" x="132" y="48" style="fill:#000"/><rect width="6" height="6" x="150" y="48" style="fill:#000"/><rect width="6" height="6" x="156" y="48" style="fill:#000"/><rect width="6" height="6" x="198" y="48" style="fill:#000"/><rect width="6" height="6" x="204" y="48" style="fill:#000"/>
<rect width="6" height="6" x="18" y="54" style="fill:#000"/><rect width="6" height="6" x="24" y="54" style="fill:#000"/><rect width="6" height="6" x="42" y="54" style="fill:#000"/><rect width="6" height="6" x="66" y="54" style="fill:#000"/><rect width="6" height="6" x="84" y="54" style="fill:#000"/><rect width="6" height="6" x="90" y="54" style="fill:#000"/><rect width="6" height="6" x="102" y="54" style="fill:#000"/><rect width="6" height="6" x="114" y="54" style="fill:#000"/><rect width="6" height="6" x="126" y="54" style="fill:#000"/><rect width="6" height="6" x="150" y="54" style="fill:#000"/><rect width="6" height="6" x="156" y="54" style="fill:#000"/><rect width="6" height="6" x="168" y="54" style="fill:#000"/><rect width="6" height="6" x="174" y="54" style="fill:#000"/><rect width="6" height="6" x="186" y="54" style="fill:#000"/><rect width="6" height="6" x="192" y="54" style="fill:#000"/><rect width="6" height="6" x="204" y="54" style="fill:#000"/>
<rect width="6" height="6" x="24" y="60" style="fill:#000"/><rect width="6" height="6" x="36" y="60" style="fill:#000"/><rect width="6" height="6" x="48" y="60" style="fill:#000"/><rect width="6" height="6" x="54" y="60" style="fill:#000"/><rect width="6" height="6" x="66" y="60" style="fill:#000"/><rect width="6" height="6" x="84" y="60" style="fill:#000"/><rect width="6" height="6" x="96" y="60" style="fill:#000"/><rect width="6" height="6" x="114" y="60" style="fill:#000"/><rect width="6" height="6" x="138" y="60" style="fill:#000"/><rect width="6" height="6" x="150" y="60" style="fill:#000"/><rect width="6" height="6" x="162" y="60" style="fill:#000"/><rect width="6" height="6" x="168" y="60" style="fill:#000"/><rect width="6" height="6" x="174" y="60" style="fill:#000"/><rect width="6" height="6" x="180" y="60" style="fill:#000"/><rect width="6" height="6" x="216" y="60" style="fill:#000"/>
<rect width="6" height="6" x="12" y="66" style="fill:#000"/><rect width="6" height="6" x="24" y="66" style="fill:#000"/><rect width="6" height="6" x="42" y="66" style="fill:#000"/><rect width="6" height="6" x="54" y="66" style="fill:#000"/><rect width="6" height="6" x="72" y="66" style="fill:#000"/><rect width="6" height="6" x="78" y="66" style="fill:#000"/><rect width="6" height="6" x="84" y="66" style="fill:#000"/><rect width="6" height="6" x="90" y="66" style="fill:#000"/><rect width="6" height="6" x="96" y="66" style="fill:#000"/><rect width="6" height="6" x="108" y="66" style="fill:#000"/><rect width="6" height="6" x="114" y="66" style="fill:#000"/><rect width="6" height="6" x="120" y="66" style="fill:#000"/><rect width="6" height="6" x="126" y="66" style="fill:#000"/><rect width="6" height="6" x="132" y="66" style="fill:#000"/><rect width="6" height="6" x="156" y="66" style="fill:#000"/><rect width="6" height="6" x="168" y="66" style="fill:#000"/><rect width="6" height="6" x="174" y="66" style="fill:#000"/><rect width="6" height="6" x="180" y="66" style="fill:#000"/><rect width="6" height="6" x="198" y="66" style="fill:#000"/><rect width="6" height="6" x="204" y="66" style="fill:#000"/><rect width="6" height="6" x="210" y="66" style="fill:#000"/>
<rect width="6" height="6" x="0" y="72" style="fill:#000"/><rect width="6" height="6" x="6" y="72" style="fill:#000"/><rect width="6" height="6" x="18" y="72" style="fill:#000"/><rect width="6" height="6" x="24" y="72" style="fill:#000"/><rect width="6" height="6" x="36" y="72" style="fill:#000"/><rect width="6" height="6" x="42" y="72" style="fill:#000"/><rect width="6" height="6" x="48" y="72" style="fill:#000"/><rect width="6" height="6" x="66" y="72" style="fill:#000"/><rect width="6" height="6" x="78" y="72" style="fill:#000"/><rect width="6" height="6" x="84" y="72" style="fill:#000"/><rect width="6" height="6" x="90" y="72" style="fill:#000"/><rect width="6" height="6" x="126" y="72" style="fill:#000"/><rect width="6" height="6" x="138" y="72" style="fill:#000"/><rect width="6" height="6" x="144" y="72" style="fill:#000"/><rect width="6" height="6" x="162" y="72" style="fill:#000"/><rect width="6" height="6" x="168" y="72" style="fill:#000"/><rect width="6" height="6" x="180" y="72" style="fill:#000"/><rect width="6" height="6" x="186" y="72" style="fill:#000"/><rect width="6" height="6" x="198" y="72" style="fill:#000"/><rect width="6" height="6" x="210" y="72" style="fill:#000"/><rect width="6" height="6" x="216" y="72" style="fill:#000"/>
<rect width="6" height="6" x="0" y="78" style="fill:#000"/><rect width="6" height="6" x="6" y="78" style="fill:#000"/><rect width="6" height="6" x="12" y="78" style="fill:#000"/><rect width="6" height="6" x="18" y="78" style="fill:#000"/><rect width="6" height="6" x="24" y="78" style="fill:#000"/><rect width="6" height="6" x="48" y="78" style="fill:#000"/><rect width="6" height="6" x="60" y="78" style="fill:#000"/><rect width="6" height="6" x="66" y="78" style="fill:#000"/><rect width="6" height="6" x="84" y="78" style="fill:#000"/><rect width="6" height="6" x="90" y="78" style="fill:#000"/><rect width="6" height="6" x="96" y="78" style="fill:#000"/><rect width="6" height="6" x="108" y="78" style="fill:#000"/><rect width="6" height="6" x="114" y="78" style="fill:#000"/><rect width="6" height="6" x="126" y="78" style="fill:#000"/><rect width="6" height="6" x="132" y="78" style="fill:#000"/><rect width="6" height="6" x="144" y="78" style="fill:#000"/><rect width="6" height="6" x="156" y="78" style="fill:#000"/><rect width="6" height="6" x="162" y="78" style="fill:#000"/><rect width="6" height="6" x="174" y="78" style="fill:#000"/><rect width="6" height="6" x="192" y="78" style="fill:#000"/><rect width="6" height="6" x="204" y="78" style="fill:#000"/>
<rect width="6" height="6" x="0" y="84" style="fill:#000"/><rect width="6" height="6" x="6" y="84" style="fill:#000"/><rect width="6" height="6" x="12" y="84" style="fill:#000"/><rect width="6" height="6" x="24" y="84" style="fill:#000"/><rect width="6" height="6" x="36" y="84" style="fill:#000"/><rect width="6" height="6" x="42" y="84" style="fill:#000"/><rect width="6" height="6" x="48" y="84" style="fill:#000"/><rect width="6" height="6" x="54" y="84" style="fill:#000"/><rect width="6" height="6" x="60" y="84" style="fill:#000"/><rect width="6" height="6" x="72" y="84" style="fill:#000"/><rect width="6" height="6" x="102" y="84" style="fill:#000"/><rect width="6" height="6" x="114" y="84" style="fill:#000"/><rect width="6" height="6" x="120" y="84" style="fill:#000"/><rect width="6" height="6" x="156" y="84" style="fill:#000"/><rect width="6" height="6" x="162" y="84" style="fill:#000"/><rect width="6" height="6" x="174" y="84" style="fill:#000"/><rect width="6" height="6" x="186" y="84" style="fill:#000"/><rect width="6" height="6" x="198" y="84" style="fill:#000"/><rect width="6" height="6" x="204" y="84" style="fill:#000"/><rect width="6" height="6" x="210" y="84" style="fill:#000"/><rect width="6" height="6" x="216" y="84" style="fill:#000"/>
<rect width="6" height="6" x="12" y="90" style="fill:#000"/><rect width="6" height="6" x="24" y="90" style="fill:#000"/><rect width="6" height="6" x="30" y="90" style="fill:#000"/><rect width="6" height="6" x="42" y="90" style="fill:#000"/><rect width="6" height="6" x="48" y="90" style="fill:#000"/><rect width="6" height="6" x="60" y="90" style="fill:#000"/><rect width="6" height="6" x="66" y="90" style="fill:#000"/><rect width="6" height="6" x="78" y="90" style="fill:#000"/><rect width="6" height="6" x="96" y="90" style="fill:#000"/><rect width="6" height="6" x="108" y="90" style="fill:#000"/><rect width="6" height="6" x="114" y="90" style="fill:#000"/><rect width="6" height="6" x="126" y="90" style="fill:#000"/><rect width="6" height="6" x="138" y="90" style="fill:#000"/><rect width="6" height="6" x="162" y="90" style="fill:#000"/><rect width="6" height="6" x="186" y="90" style="fill:#000"/><rect width="6" height="6" x="192" y="90" style="fill:#000"/><rect width="6" height="6" x="198" y="90" style="fill:#000"/><rect width="6" height="6" x="204" y="90" style="fill:#000"/><rect width="6" height="6" x="216" y="90" style="fill:#000"/>
<rect width="6" height="6" x="6" y="96" style="fill:#000"/><rect width="6" height="6" x="18" y="96" style="fill:#000"/><rect width="6" height="6" x="36" y="96" style="fill:#000"/><rect width="6" height="6" x="48" y="96" style="fill:#000"/><rect width="6" height="6" x="54" y="96" style="fill:#000"/><rect width="6" height="6" x="84" y="96" style="fill:#000"/><rect width="6" height="6" x="90" y="96" style="fill:#000"/><rect width="6" height="6" x="96" y="96" style="fill:#000"/><rect width="6" height="6" x="102" y="96" style="fill:#000"/><rect width="6" height="6" x="108" y="96" style="fill:#000"/><rect width="6" height="6" x="120" y="96" style="fill:#000"/><rect width="6" height="6" x="126" y="96" style="fill:#000"/><rect width="6" height="6" x="144" y="96" style="fill:#000"/><rect width="6" height="6" x="150" y="96" style="fill:#000"/><rect width="6" height="6" x="162" y="96" style="fill:#000"/><rect width="6" height="6" x="180" y="96" style="fill:#000"/><rect width="6" height="6" x="204" y="96" style="fill:#000"/><rect width="6" height="6" x="216" y="96" style="fill:#000"/>
<rect width="6" height="6" x="0" y="102" style="fill:#000"/><rect width="6" height="6" x="24" y="102" style="fill:#000"/><rect width="6" height="6" x="54" y="102" style="fill:#000"/><rect width="6" height="6" x="60" y="102" style="fill:#000"/><rect width="6" height="6" x="72" y="102" style="fill:#000"/><rect width="6" height="6" x="84" y="102" style="fill:#000"/><rect width="6" height="6" x="96" y="102" style="fill:#000"/><rect width="6" height="6" x="102" y="102" style="fill:#000"/><rect width="6" height="6" x="108" y="102" style="fill:#000"/><rect width="6" height="6" x="120" y="102" style="fill:#000"/><rect width="6" height="6" x="126" y="102" style="fill:#000"/><rect width="6" height="6" x="132" y="102" style="fill:#000"/><rect width="6" height="6" x="138" y="102" style="fill:#000"/><rect width="6" height="6" x="144" y="102" style="fill:#000"/><rect width="6" height="6" x="150" y="102" style="fill:#000"/><rect width="6" height="6" x="162" y="102" style="fill:#000"/><rect width="6" height="6" x="174" y="102" style="fill:#000"/><rect width="6" height="6" x="198" y="102" style="fill:#000"/><rect width="6" height="6" x="210" y="102" style="fill:#000"/>
<rect width="6" height="6" x="0" y="108" style="fill:#000"/><rect width="6" height="6" x="6" y="108" style="fill:#000"/><rect width="6" height="6" x="12" y="108" style="fill:#000"/><rect width="6" height="6" x="18" y="108" style="fill:#000"/><rect width="6" height="6" x="24" y="108" style="fill:#000"/><rect width="6" height="6" x="30" y="108" style="fill:#000"/><rect width="6" height="6" x="36" y="108" style="fill:#000"/><rect width="6" height="6" x="42" y="108" style="fill:#000"/><rect width="6" height="6" x="48" y="108" style="fill:#000"/><rect width="6" height="6" x="54" y="108" style="fill:#000"/><rect width="6" height="6" x="66" y="108" style="fill:#000"/><rect width="6" height="6" x="78" y="108" style="fill:#000"/><rect width="6" height="6" x="84" y="108" style="fill:#000"/><rect width="6" height="6" x="90" y="108" style="fill:#000"/><rect width="6" height="6" x="114" y="108" style="fill:#000"/><rect width="6" height="6" x="132" y="108" style="fill:#000"/><rect width="6" height="6" x="144" y="108" style="fill:#000"/><rect width="6" height="6" x="150" y="108" style="fill:#000"/><rect width="6" height="6" x="156" y="108" style="fill:#000"/><rect width="6" height="6" x="162" y="108" style="fill:#000"/><rect width="6" height="6" x="174" y="108" style="fill:#000"/><rect width="6" height="6" x="186" y="108" style="fill:#000"/><rect width="6" height="6" x="192" y="108" style="fill:#000"/><rect width="6" height="6" x="204" y="108" style="fill:#000"/><rect width="6" height="6" x="216" y="108" style="fill:#000"/>
<rect width="6" height="6" x="6" y="114" style="fill:#000"/><rect width="6" height="6" x="12" y="114" style="fill:#000"/><rect width="6" height="6" x="54" y="114" style="fill:#000"/><rect width="6" height="6" x="60" y="114" style="fill:#000"/><rect width="6" height="6" x="66" y="114" style="fill:#000"/><rect width="6" height="6" x="72" y="114" style="fill:#000"/><rect width="6" height="6" x="84" y="114" style="fill:#000"/><rect width="6" height="6" x="90" y="114" style="fill:#000"/><rect width="6" height="6" x="132" y="114" style="fill:#000"/><rect width="6" height="6" x="144" y="114" style="fill:#000"/><rect width="6" height="6" x="150" y="114" style="fill:#000"/><rect width="6" height="6" x="162" y="114" style="fill:#000"/><rect width="6" height="6" x="168" y="114" style="fill:#000"/><rect width="6" height="6" x="174" y="114" style="fill:#000"/><rect width="6" height="6" x="180" y="114" style="fill:#000"/><rect width="6" height="6" x="198" y="114" style="fill:#000"/>
<rect width="6" height="6" x="18" y="120" style="fill:#000"/><rect width="6" height="6" x="36" y="120" style="fill:#000"/><rect width="6" height="6" x="54" y="120" style="fill:#000"/><rect width="6" height="6" x="72" y="120" style="fill:#000"/><rect width="6" height="6" x="84" y="120" style="fill:#000"/><rect width="6" height="6" x="96" y="120" style="fill:#000"/><rect width="6" height="6" x="120" y="120" style="fill:#000"/><rect width="6" height="6" x="138" y="120" style="fill:#000"/><rect width="6" height="6" x="156" y="120" style="fill:#000"/><rect width="6" height="6" x="168" y="120" style="fill:#000"/><rect width="6" height="6" x="174" y="120" style="fill:#000"/><rect width="6" height="6" x="180" y="120" style="fill:#000"/><rect width="6" height="6" x="192" y="120" style="fill:#000"/><rect width="6" height="6" x="198" y="120" style="fill:#000"/><rect width="6" height="6" x="210" y="120" style="fill:#000"/><rect width="6" height="6" x="216" y="120" style="fill:#000"/>
<rect width="6" height="6" x="18" y="126" style="fill:#000"/><rect width="6" height="6" x="24" y="126" style="fill:#000"/><rect width="6" height="6" x="66" y="126" style="fill:#000"/><rect width="6" height="6" x="84" y="126" style="fill:#000"/><rect width="6" height="6" x="90" y="126" style="fill:#000"/><rect width="6" height="6" x="96" y="126" style="fill:#000"/><rect width="6" height="6" x="102" y="126" style="fill:#000"/><rect width="6" height="6" x="120" y="126" style="fill:#000"/><rect width="6" height="6" x="126" y="126" style="fill:#000"/><rect width="6" height="6" x="132" y="126" style="fill:#000"/><rect width="6" height="6" x="144" y="126" style="fill:#000"/><rect width="6" height="6" x="156" y="126" style="fill:#000"/><rect width="6" height="6" x="162" y="126" style="fill:#000"/><rect width="6" height="6" x="168" y="126" style="fill:#000"/><rect width="6" height="6" x="186" y="126" style="fill:#000"/><rect width="6" height="6" x="192" y="126" style="fill:#000"/>
<rect width="6" height="6" x="0" y="132" style="fill:#000"/><rect width="6" height="6" x="12" y="132" style="fill:#000"/><rect width="6" height="6" x="24" y="132" style="fill:#000"/><rect width="6" height="6" x="36" y="132" style="fill:#000"/><rect width="6" height="6" x="42" y="132" style="fill:#000"/><rect width="6" height="6" x="72" y="132" style="fill:#000"/><rect width="6" height="6" x="78" y="132" style="fill:#000"/><rect width="6" height="6" x="84" y="132" style="fill:#000"/><rect width="6" height="6" x="102" y="132" style="fill:#000"/><rect width="6" height="6" x="126" y="132" style="fill:#000"/><rect width="6" height="6" x="132" y="132" style="fill:#000"/><rect width="6" height="6" x="138" y="132" style="fill:#000"/><rect width="6" height="6" x="156" y="132" style="fill:#000"/><rect width="6" height="6" x="162" y="132" style="fill:#000"/><rect width="6" height="6" x="180" y="132" style="fill:#000"/><rect width="6" height="6" x="192" y="132" style="fill:#000"/><rect width="6" height="6" x="204" y="132" style="fill:#000"/><rect width="6" height="6" x="216" y="132" style="fill:#000"/>
<rect width="6" height="6" x="24" y="138" style="fill:#000"/><rect width="6" height="6" x="30" y="138" style="fill:#000"/><rect width="6" height="6" x="48" y="138" style="fill:#000"/><rect width="6" height="6" x="54" y="138" style="fill:#000"/><rect width="6" height="6" x="66" y="138" style="fill:#000"/><rect width="6" height="6" x="72" y="138" style="fill:#000"/><rect width="6" height="6" x="78" y="138" style="fill:#000"/><rect width="6" height="6" x="84" y="138" style="fill:#000"/><rect width="6" height="6" x="90" y="138" style="fill:#000"/><rect width="6" height="6" x="96" y="138" style="fill:#000"/><rect width="6" height="6" x="102" y="138" style="fill:#000"/><rect width="6" height="6" x="114" y="138" style="fill:#000"/><rect width="6" height="6" x="126" y="138" style="fill:#000"/><rect width="6" height="6" x="144" y="138" style="fill:#000"/><rect width="6" height="6" x="156" y="138" style="fill:#000"/><rect width="6" height="6" x="162" y="138" style="fill:#000"/><rect width="6" height="6" x="168" y="138" style="fill:#000"/><rect width="6" height="6" x="174" y="138" style="fill:#000"/><rect width="6" height="6" x="180" y="138" style="fill:#000"/><rect width="6" height="6" x="186" y="138" style="fill:#000"/><rect width="6" height="6" x="198" y="138" style="fill:#000"/><rect width="6" height="6" x="204" y="138" style="fill:#000"/><rect width="6" height="6" x="210" y="138" style="fill:#000"/><rect width="6" height="6" x="216" y="138" style="fill:#000"/>
<rect width="6" height="6" x="12" y="144" style="fill:#000"/><rect width="6" height="6" x="18" y="144" style="fill:#000"/><rect width="6" height="6" x="24" y="144" style="fill:#000"/><rect width="6" height="6" x="30" y="144" style="fill:#000"/><rect width="6" height="6" x="36" y="144" style="fill:#000"/><rect width="6" height="6" x="42" y="144" style="fill:#000"/><rect width="6" height="6" x="48" y="144" style="fill:#000"/><rect width="6" height="6" x="78" y="144" style="fill:#000"/><rect width="6" height="6" x="90" y="144" style="fill:#000"/><rect width="6" height="6" x="96" y="144" style="fill:#000"/><rect width="6" height="6" x="102" y="144" style="fill:#000"/><rect width="6" height="6" x="108" y="144" style="fill:#000"/><rect width="6" height="6" x="114" y="144" style="fill:#000"/><rect width="6" height="6" x="120" y="144" style="fill:#000"/><rect width="6" height="6" x="150" y="144" style="fill:#000"/><rect width="6" height="6" x="156" y="144" style="fill:#000"/><rect width="6" height="6" x="168" y="144" style="fill:#000"/><rect width="6" height="6" x="174" y="144" style="fill:#000"/><rect width="6" height="6" x="180" y="144" style="fill:#000"/><rect width="6" height="6" x="198" y="144" style="fill:#000"/><rect width="6" height="6" x="216" y="144" style="fill:#000"/>
<rect width="6" height="6" x="0" y="150" style="fill:#000"/><rect width="6" height="6" x="6" y="150" style="fill:#000"/><rect width="6" height="6" x="12" y="150" style="fill:#000"/><rect width="6" height="6" x="18" y="150" style="fill:#000"/><rect width="6" height="6" x="30" y="150" style="fill:#000"/><rect width="6" height="6" x="42" y="150" style="fill:#000"/><rect width="6" height="6" x="54" y="150" style="fill:#000"/><rect width="6" height="6" x="60" y="150" style="fill:#000"/><rect width="6" height="6" x="72" y="150" style="fill:#000"/><rect width="6" height="6" x="78" y="150" style="fill:#000"/><rect width="6" height="6" x="84" y="150" style="fill:#000"/><rect width="6" height="6" x="96" y="150" style="fill:#000"/><rect width="6" height="6" x="102" y="150" style="fill:#000"/><rect width="6" height="6" x="114" y="150" style="fill:#000"/><rect width="6" height="6" x="120" y="150" style="fill:#000"/><rect width="6" height="6" x="126" y="150" style="fill:#000"/><rect width="6" height="6" x="144" y="150" style="fill:#000"/><rect width="6" height="6" x="168" y="150" style="fill:#000"/><rect width="6" height="6" x="180" y="150" style="fill:#000"/><rect width="6" height="6" x="192" y="150" style="fill:#000"/><rect width="6" height="6" x="210" y="150" style="fill:#000"/>
<rect width="6" height="6" x="0" y="156" style="fill:#000"/><rect width="6" height="6" x="6" y="156" style="fill:#000"/><rect width="6" height="6" x="18" y="156" style="fill:#000"/><rect width="6" height="6" x="36" y="156" style="fill:#000"/><rect width="6" height="6" x="42" y="156" style="fill:#000"/><rect width="6" height="6" x="54" y="156" style="fill:#000"/><rect width="6" height="6" x="60" y="156" style="fill:#000"/><rect width="6" height="6" x="66" y="156" style="fill:#000"/><rect width="6" height="6" x="72" y="156" style="fill:#000"/><rect width="6" height="6" x="78" y="156" style="fill:#000"/><rect width="6" height="6" x="84" y="156" style="fill:#000"/><rect width="6" height="6" x="108" y="156" style="fill:#000"/><rect width="6" height="6" x="120" y="156" style="fill:#000"/><rect width="6" height="6" x="132" y="156" style="fill:#000"/><rect width="6" height="6" x="156" y="156" style="fill:#000"/><rect width="6" height="6" x="168" y="156" style="fill:#000"/><rect width="6" height="6" x="180" y="156" style="fill:#000"/><rect width="6" height="6" x="210" y="156" style="fill:#000"/><rect width="6" height="6" x="216" y="156" style="fill:#000"/>
<rect width="6" height="6" x="0" y="162" style="fill:#000"/><rect width="6" height="6" x="18" y="162" style="fill:#000"/><rect width="6" height="6" x="42" y="162" style="fill:#000"/><rect width="6" height="6" x="48" y="162" style="fill:#000"/><rect width="6" height="6" x="54" y="162" style="fill:#000"/><rect width="6" height="6" x="90" y="162" style="fill:#000"/><rect width="6" height="6" x="96" y="162" style="fill:#000"/><rect width="6" height="6" x="120" y="162" style="fill:#000"/><rect width="6" height="6" x="132" y="162" style="fill:#000"/><rect width="6" height="6" x="144" y="162" style="fill:#000"/><rect width="6" height="6" x="162" y="162" style="fill:#000"/><rect width="6" height="6" x="174" y="162" style="fill:#000"/><rect width="6" height="6" x="192" y="162" style="fill:#000"/><rect width="6" height="6" x="198" y="162" style="fill:#000"/><rect width="6" height="6" x="204" y="162" style="fill:#000"/><rect width="6" height="6" x="210" y="162" style="fill:#000"/><rect width="6" height="6" x="216" y="162" style="fill:#000"/>
<rect width="6" height="6" x="0" y="168" style="fill:#000"/><rect width="6" height="6" x="12" y="168" style="fill:#000"/><rect width="6" height="6" x="24" y="168" style="fill:#000"/><rect width="6" height="6" x="36" y="168" style="fill:#000"/><rect width="6" height="6" x="42" y="168" style="fill:#000"/><rect width="6" height="6" x="48" y="168" style="fill:#000"/><rect width="6" height="6" x="54" y="168" style="fill:#000"/><rect width="6" height="6" x="60" y="168" style="fill:#000"/><rect width="6" height="6" x="84" y="168" style="fill:#000"/><rect width="6" height="6" x="90" y="168" style="fill:#000"/><rect width="6" height="6" x="96" y="168" style="fill:#000"/><rect width="6" height="6" x="108" y="168" style="fill:#000"/><rect width="6" height="6" x="114" y="168" style="fill:#000"/><rect width="6" height="6" x="126" y="168" style="fill:#000"/><rect width="6" height="6" x="138" y="168" style="fill:#000"/><rect width="6" height="6" x="150" y="168" style="fill:#000"/><rect width="6" height="6" x="168" y="168" style="fill:#000"/><rect width="6" height="6" x="174" y="168" style="fill:#000"/><rect width="6" height="6" x="180" y="168" style="fill:#000"/><rect width="6" height="6" x="186" y="168" style="fill:#000"/><rect width="6" height="6" x="192" y="168" style="fill:#000"/><rect width="6" height="6" x="198" y="168" style="fill:#000"/><rect width="6" height="6" x="204" y="168" style="fill:#000"/><rect width="6" height="6" x="210" y="168" style="fill:#000"/><rect width="6" height="6" x="216" y="168" style="fill:#000"/>
<rect width="6" height="6" x="48" y="174" style="fill:#000"/><rect width="6" height="6" x="60" y="174" style="fill:#000"/><rect width="6" height="6" x="66" y="174" style="fill:#000"/><rect width="6" height="6" x="72" y="174" style="fill:#000"/><rect width="6" height="6" x="78" y="174" style="fill:#000"/><rect width="6" height="6" x="84" y="174" style="fill:#000"/><rect width="6" height="6" x="96" y="174" style="fill:#000"/><rect width="6" height="6" x="102" y="174" style="fill:#000"/><rect width="6" height="6" x="132" y="174" style="fill:#000"/><rect width="6" height="6" x="150" y="174" style="fill:#000"/><rect width="6" height="6" x="168" y="174" style="fill:#000"/><rect width="6" height="6" x="192" y="174" style="fill:#000"/><rect width="6" height="6" x="198" y="174" style="fill:#000"/><rect width="6" height="6" x="204" y="174" style="fill:#000"/>
<rect width="6" height="6" x="0" y="180" style="fill:#000"/><rect width="6" height="6" x="6" y="180" style="fill:#000"/><rect width="6" height="6" x="12" y="180" style="fill:#000"/><rect width="6" height="6" x="18" y="180" style="fill:#000"/><rect width="6" height="6" x="24" y="180" style="fill:#000"/><rect width="6" height="6" x="30" y="180" style="fill:#000"/><rect width="6" height="6" x="36" y="180" style="fill:#000"/><rect width="6" height="6" x="48" y="180" style="fill:#000"/><rect width="6" height="6" x="54" y="180" style="fill:#000"/><rect width="6" height="6" x="60" y="180" style="fill:#000"/><rect width="6" height="6" x="78" y="180" style="fill:#000"/><rect width="6" height="6" x="96" y="180" style="fill:#000"/><rect width="6" height="6" x="126" y="180" style="fill:#000"/><rect width="6" height="6" x="138" y="180" style="fill:#000"/><rect width="6" height="6" x="150" y="180" style="fill:#000"/><rect width="6" height="6" x="168" y="180" style="fill:#000"/><rect width="6" height="6" x="180" y="180" style="fill:#000"/><rect width="6" height="6" x="192" y="180" style="fill:#000"/><rect width="6" height="6" x="198" y="180" style="fill:#000"/><rect width="6" height="6" x="204" y="180" style="fill:#000"/><rect width="6" height="6" x="216" y="180" style="fill:#000"/>
<rect width="6" height="6" x="0" y="186" style="fill:#000"/><rect width="6" height="6" x="36" y="186" style="fill:#000"/><rect width="6" height="6" x="60" y="186" style="fill:#000"/><rect width="6" height="6" x="84" y="186" style="fill:#000"/><rect width="6" height="6" x="90" y="186" style="fill:#000"/><rect width="6" height="6" x="138" y="186" style="fill:#000"/><rect width="6" height="6" x="144" y="186" style="fill:#000"/><rect width="6" height="6" x="150" y="186" style="fill:#000"/><rect width="6" height="6" x="162" y="186" style="fill:#000"/><rect width="6" height="6" x="168" y="186" style="fill:#000"/><rect width="6" height="6" x="192" y="186" style="fill:#000"/><rect width="6" height="6" x="198" y="186" style="fill:#000"/><rect width="6" height="6" x="210" y="186" style="fill:#000"/><rect width="6" height="6" x="216" y="186" style="fill:#000"/>
<rect width="6" height="6" x="0" y="192" style="fill:#000"/><rect width="6" height="6" x="12" y="192" style="fill:#000"/><rect width="6" height="6" x="18" y="192" style="fill:#000"/><rect width="6" height="6" x="24" y="192" style="fill:#000"/><rect width="6" height="6" x="36" y="192" style="fill:#000"/><rect width="6" height="6" x="48" y="192" style="fill:#000"/><rect width="6" height="6" x="66" y="192" style="fill:#000"/><rect width="6" height="6" x="78" y="192" style="fill:#000"/><rect width="6" height="6" x="90" y="192" style="fill:#000"/><rect width="6" height="6" x="96" y="192" style="fill:#000"/><rect width="6" height="6" x="102" y="192" style="fill:#000"/><rect width="6" height="6" x="108" y="192" style="fill:#000"/><rect width="6" height="6" x="132" y="192" style="fill:#000"/><rect width="6" height="6" x="144" y="192" style="fill:#000"/><rect width="6" height="6" x="156" y="192" style="fill:#000"/><rect width="6" height="6" x="162" y="192" style="fill:#000"/><rect width="6" height="6" x="168" y="192" style="fill:#000"/><rect width="6" height="6" x="174" y="192" style="fill:#000"/><rect width="6" height="6" x="180" y="192" style="fill:#000"/><rect width="6" height="6" x="186" y="192" style="fill:#000"/><rect width="6" height="6" x="192" y="192" style="fill:#000"/><rect width="6" height="6" x="216" y="192" style="fill:#000"/>
<rect width="6" height="6" x="0" y="198" style="fill:#000"/><rect width="6" height="6" x="12" y="198" style="fill:#000"/><rect width="6" height="6" x="18" y="198" style="fill:#000"/><rect width="6" height="6" x="24" y="198" style="fill:#000"/><rect width="6" height="6" x="36" y="198" style="fill:#000"/><rect width="6" height="6" x="48" y="198" style="fill:#000"/><rect width="6" height="6" x="66" y="198" style="fill:#000"/><rect width="6" height="6" x="90" y="198" style="fill:#000"/><rect width="6" height="6" x="108" y="198" style="fill:#000"/><rect width="6" height="6" x="114" y="198" style="fill:#000"/><rect width="6" height="6" x="126" y="198" style="fill:#000"/><rect width="6" height="6" x="132" y="198" style="fill:#000"/><rect width="6" height="6" x="150" y="198" style="fill:#000"/><rect width="6" height="6" x="156" y="198" style="fill:#000"/><rect width="6" height="6" x="180" y="198" style="fill:#000"/><rect width="6" height="6" x="186" y="198" style="fill:#000"/><rect width="6" height="6" x="198" y="198" style="fill:#000"/><rect width="6" height="6" x="204" y="198" style="fill:#000"/>
<rect width="6" height="6" x="0" y="204" style="fill:#000"/><rect width="6" height="6" x="12" y="204" style="fill:#000"/><rect width="6" height="6" x="18" y="204" style="fill:#000"/><rect width="6" height="6" x="24" y="204" style="fill:#000"/><rect width="6" height="6" x="36" y="204" style="fill:#000"/><rect width="6" height="6" x="54" y="204" style="fill:#000"/><rect width="6" height="6" x="60" y="204" style="fill:#000"/><rect width="6" height="6" x="72" y="204" style="fill:#000"/><rect width="6" height="6" x="78" y="204" style="fill:#000"/><rect width="6" height="6" x="84" y="204" style="fill:#000"/><rect width="6" height="6" x="102" y="204" style="fill:#000"/><rect width="6" height="6" x="108" y="204" style="fill:#000"/><rect width="6" height="6" x="120" y="204" style="fill:#000"/><rect width="6" height="6" x="132" y="204" style="fill:#000"/><rect width="6" height="6" x="144" y="204" style="fill:#000"/><rect width="6" height="6" x="150" y="204" style="fill:#000"/><rect width="6" height="6" x="168" y="204" style="fill:#000"/><rect width="6" height="6" x="186" y="204" style="fill:#000"/><rect width="6" height="6" x="192" y="204" style="fill:#000"/><rect width="6" height="6" x="210" y="204" style="fill:#000"/><rect width="6" height="6" x="216" y="204" style="fill:#000"/>
<rect width="6" height="6" x="0" y="210" style="fill:#000"/><rect width="6" height="6" x="36" y="210" style="fill:#000"/><rect width="6" height="6" x="66" y="210" style="fill:#000"/><rect width="6" height="6" x="72" y="210" style="fill:#000"/><rect width="6" height="6" x="78" y="210" style="fill:#000"/><rect width="6" height="6" x="96" y="210" style="fill:#000"/><rect width="6" height="6" x="102" y="210" style="fill:#000"/><rect width="6" height="6" x="120" y="210" style="fill:#000"/><rect width="6" height="6" x="132" y="210" style="fill:#000"/><rect width="6" height="6" x="174" y="210" style="fill:#000"/><rect width="6" height="6" x="180" y="210" style="fill:#000"/><rect width="6" height="6" x="186" y="210" style="fill:#000"/><rect width="6" height="6" x="198" y="210" style="fill:#000"/><rect width="6" height="6" x="204" y="210" style="fill:#000"/><rect width="6" height="6" x="210" y="210" style="fill:#000"/><rect width="6" height="6" x="216" y="210" style="fill:#000"/>
<rect width="6" height="6" x="0" y="216" style="fill:#000"/><rect width="6" height="6" x="6" y="216" style="fill:#000"/><rect width="6" height="6" x="12" y="216" style="fill:#000"/><rect width="6" height="6" x="18" y="216" style="fill:#000"/><rect width="6" height="6" x="24" y="216" style="fill:#000"/><rect width="6" height="6" x="30" y="216" style="fill:#000"/><rect width="6" height="6" x="36" y="216" style="fill:#000"/><rect width="6" height="6" x="54" y="216" style="fill:#000"/><rect width="6" height="6" x="66" y="216" style="fill:#000"/><rect width="6" height="6" x="84" y="216" style="fill:#000"/><rect width="6" height="6" x="96" y="216" style="fill:#000"/><rect width="6" height="6" x="108" y="216" style="fill:#000"/><rect width="6" height="6" x="120" y="216" style="fill:#000"/><rect width="6" height="6" x="126" y="216" style="fill:#000"/><rect width="6" height="6" x="168" y="216" style="fill:#000"/><rect width="6" height="6" x="192" y="216" style="fill:#000"/><rect width="6" height="6" x="198" y="216" style="fill:#000"/><rect width="6" height="6" x="216" y="216" style="fill:#000"/>
</svg>