<?xml version="1.0" encoding="UTF-8"?>
<svg width="377px" height="377px" viewBox="0 0 377 377" version="1.1" xmlns="http://www.w3.org/2000/svg" xmlns:xlink="http://www.w3.org/1999/xlink">
    <!-- Generator: Sketch 44.1 (41455) - http://www.bohemiancoding.com/sketch -->
    <title>Shape</title>
    <desc>Created with Sketch.</desc>
    <defs></defs>
    <g id="Page-1" stroke="none" stroke-width="1" fill="none" fill-rule="evenodd">
        <path d="M182.695174,362.040601 L155.960486,374.01467 C144.333671,379.22215 130.648119,375.555264 123.182845,365.232279 L106.017202,341.495624 C103.772391,338.391499 100.309841,336.392473 96.4990761,336.000552 L67.3588832,333.003594 C54.6859211,331.700228 44.6674026,321.682111 43.3639842,309.009656 L40.3669054,279.870631 C39.9749669,276.060019 37.9758632,272.59761 34.8716128,270.352886 L11.134005,253.187933 C0.810607024,245.722959 -2.85642533,232.037955 2.35126218,220.411605 L14.3258122,193.677991 C15.8917662,190.181942 15.8917662,186.183897 14.3258122,182.687848 L2.35126218,155.954231 C-2.85642533,144.327883 0.810607024,130.64288 11.134005,123.177905 L34.8716128,106.01295 C37.9758632,103.768229 39.9749669,100.30582 40.3669054,96.4952051 L43.3639842,67.356183 C44.6674026,54.6837279 54.6859211,44.6656107 67.3588832,43.362245 L96.4990761,40.3652864 C100.309841,39.9733626 103.772391,37.9743398 106.017202,34.8702147 L123.182845,11.133557 C130.648119,0.81057456 144.333671,-2.85631155 155.960486,2.35116901 L182.695174,14.3252381 C186.191363,15.8911293 190.189569,15.8911293 193.685758,14.3252381 L220.420444,2.35116901 C232.047261,-2.85631155 245.732813,0.81057456 253.198087,11.133557 L270.363728,34.8702147 C272.608542,37.9743398 276.07109,39.9733626 279.881854,40.3652864 L309.022048,43.362245 C321.695011,44.6656107 331.71353,54.6837279 333.016948,67.356183 L336.014027,96.4952051 C336.405964,100.30582 338.405069,103.768229 341.509319,106.01295 L365.246926,123.177905 C375.570325,130.64288 379.237358,144.327883 374.029669,155.954231 L362.055119,182.687848 C360.489165,186.183897 360.489165,190.181942 362.055119,193.677991 L374.029669,220.411605 C379.237358,232.037955 375.570325,245.722959 365.246926,253.187933 L341.509319,270.352886 C338.405069,272.59761 336.405964,276.060019 336.014027,279.870631 L333.016948,309.009656 C331.71353,321.682111 321.695011,331.700228 309.022048,333.003594 L279.881854,336.000552 C276.07109,336.392473 272.608542,338.391499 270.363728,341.495624 L253.198087,365.232279 C245.732813,375.555264 232.047261,379.22215 220.420444,374.01467 L193.685758,362.040601 C190.189569,360.474709 186.191363,360.474709 182.695174,362.040601 Z M115.556471,162.753521 L92.7422706,185.566808 L169.330056,262.15152 L286.897014,144.58928 L264.082812,121.775993 L169.330056,216.524949 L115.556471,162.753521 Z" id="Shape" fill="#F6A623" fill-rule="nonzero"></path>
    </g>
</svg>