<?xml version="1.0" encoding="UTF-8"?>
<svg width="208px" height="129px" viewBox="0 0 208 129" version="1.1" xmlns="http://www.w3.org/2000/svg" xmlns:xlink="http://www.w3.org/1999/xlink">
    <!-- Generator: Sketch 44.1 (41455) - http://www.bohemiancoding.com/sketch -->
    <title>Group 14</title>
    <desc>Created with Sketch.</desc>
    <defs></defs>
    <g id="Page-1" stroke="none" stroke-width="1" fill="none" fill-rule="evenodd">
        <g id="Group-14">
            <g id="Group">
                <path d="M1.04000006,58 L1.04000006,0.24 L16.5600001,0.24 C28.4000001,0.24 35.2000001,5.2 35.2000001,15.12 C35.2000001,20.16 32.7200001,24.32 28.0800001,27.12 C34.1600001,30.96 36.5600001,34.16 36.5600001,41.36 C36.5600001,52.8 28.8800001,58 17.2000001,58 L1.04000006,58 Z M12.0800001,32.24 L12.0800001,48.88 L16.7200001,48.88 C22.4800001,48.88 25.5200001,45.52 25.5200001,40.48 C25.5200001,34.96 21.6800001,32.24 15.9200001,32.24 L12.0800001,32.24 Z M12.0800001,9.36 L12.0800001,23.12 L15.9200001,23.12 C20.8800001,23.12 24.1600001,20.24 24.1600001,16.32 C24.1600001,12.08 21.6800001,9.36 16.4800001,9.36 L12.0800001,9.36 Z M82.68,58 L70.84,58 L61.24,34.48 L55.96,34.48 L55.96,58 L44.92,58 L44.92,0.24 L60.92,0.24 C74.2,0.24 80.52,6.64 80.52,17.52 C80.52,24.72 77.96,29.92 71.8,32.24 L82.68,58 Z M55.96,9.36 L55.96,25.36 L61.64,25.36 C66.52,25.36 69.48,22.96 69.48,17.36 C69.48,11.76 66.52,9.36 61.64,9.36 L55.96,9.36 Z M119.84,58 L119.84,48.24 L99.84,48.24 L99.84,33.04 L114.48,33.04 L114.48,23.28 L99.84,23.28 L99.84,10 L119.04,10 L119.04,0.24 L88.8,0.24 L88.8,58 L119.84,58 Z M128.84,0.24 L128.84,40.72 C128.84,53.44 136.28,58.8 147.64,58.8 C159,58.8 166.52,53.44 166.52,40.72 L166.52,0.24 L155.48,0.24 L155.48,40.64 C155.48,46.16 153,49.04 147.64,49.04 C142.28,49.04 139.88,46.16 139.88,40.64 L139.88,0.24 L128.84,0.24 Z M207.52,58 L207.52,48.24 L187.52,48.24 L187.52,33.04 L202.16,33.04 L202.16,23.28 L187.52,23.28 L187.52,10 L206.72,10 L206.72,0.24 L176.48,0.24 L176.48,58 L207.52,58 Z" id="BREUE" fill="#373737"></path>
                <rect id="Rectangle" fill="#EF3D24" x="0" y="71" width="207" height="12"></rect>
                <rect id="Rectangle" fill="#FDDD0C" x="70" y="94" width="137" height="12"></rect>
                <rect id="Rectangle" fill="#00B9F3" x="127" y="117" width="80" height="12"></rect>
            </g>
        </g>
    </g>
</svg>