<?xml version="1.0" encoding="UTF-8"?>
<svg width="1880px" height="212px" viewBox="0 0 1880 212" version="1.1" xmlns="http://www.w3.org/2000/svg" xmlns:xlink="http://www.w3.org/1999/xlink">
    <!-- Generator: Sketch 44.1 (41455) - http://www.bohemiancoding.com/sketch -->
    <title>oatmel community</title>
    <desc>Created with Sketch.</desc>
    <defs></defs>
    <g id="Page-1" stroke="none" stroke-width="1" fill="none" fill-rule="evenodd">
        <path d="M78.9650031,121.25 C83.7250269,116.209975 86.1050031,108.930048 86.1050031,99.41 C86.1050031,89.8899524 83.6550276,82.6450248 78.7550031,77.675 C73.8549786,72.7049751 68.0450367,70.22 61.3250031,70.22 C54.6049695,70.22 48.8300272,72.7049751 44.0000031,77.675 C39.1699789,82.6450248 36.7550031,89.8899524 36.7550031,99.41 C36.7550031,108.930048 39.2399782,116.209975 44.2100031,121.25 C49.1800279,126.290025 55.0249695,128.81 61.7450031,128.81 C68.4650367,128.81 74.2049793,126.290025 78.9650031,121.25 Z M17.8550031,142.88 C6.09494425,131.819945 0.215003052,117.26009 0.215003052,99.2 C0.215003052,81.1399097 6.09494425,66.6850542 17.8550031,55.835 C29.6150619,44.9849458 44.1749163,39.56 61.5350031,39.56 C78.8950899,39.56 93.4199446,44.9849458 105.110003,55.835 C116.800062,66.6850542 122.645003,81.1399097 122.645003,99.2 C122.645003,117.26009 116.835061,131.819945 105.215003,142.88 C93.594945,153.940055 79.1050899,159.47 61.7450031,159.47 C44.3849163,159.47 29.7550626,153.940055 17.8550031,142.88 Z M208.045003,120.83 C213.225029,115.789975 215.815003,108.650046 215.815003,99.41 C215.815003,90.1699538 213.225029,83.0650248 208.045003,78.095 C202.864977,73.1249751 196.915036,70.64 190.195003,70.64 C183.474969,70.64 177.525029,73.1599748 172.345003,78.2 C167.164977,83.2400252 164.575003,90.3799538 164.575003,99.62 C164.575003,108.860046 167.164977,115.964975 172.345003,120.935 C177.525029,125.905025 183.474969,128.39 190.195003,128.39 C196.915036,128.39 202.864977,125.870025 208.045003,120.83 Z M143.575003,142.67 C133.214951,131.469944 128.035003,117.120088 128.035003,99.62 C128.035003,82.1199125 133.214951,67.7350564 143.575003,56.465 C153.935054,45.1949436 166.569928,39.56 181.480003,39.56 C196.390077,39.56 207.834963,45.0899447 215.815003,56.15 L215.815003,40.82 L251.725003,40.82 L251.725003,158 L215.815003,158 L215.815003,140.99 C207.134959,153.310062 195.515075,159.47 180.955003,159.47 C166.39493,159.47 153.935054,153.870056 143.575003,142.67 Z M323.895002,127.55 L336.705002,127.55 L336.705002,158 L318.435002,158 C305.274936,158 295.090038,155.095029 287.880002,149.285 C280.669966,143.474971 277.065002,133.500071 277.065002,119.36 L277.065002,70.64 L266.145002,70.64 L266.145002,40.82 L277.065002,40.82 L277.065002,12.26 L312.975002,12.26 L312.975002,40.82 L336.495002,40.82 L336.495002,70.64 L312.975002,70.64 L312.975002,119.36 C312.975002,124.820027 316.614966,127.55 323.895002,127.55 Z M388.085002,40.82 L388.085002,58.04 C395.505039,45.7199384 407.334921,39.56 423.575002,39.56 C432.255045,39.56 439.989968,41.5199804 446.780002,45.44 C453.570036,49.3600196 458.854983,54.9599636 462.635002,62.24 C466.975024,55.3799657 472.609967,49.8850207 479.540002,45.755 C486.470037,41.6249794 494.204959,39.56 502.745002,39.56 C517.025073,39.56 528.36496,43.9699559 536.765002,52.79 C545.165044,61.6100441 549.365002,73.8599216 549.365002,89.54 L549.365002,158 L513.665002,158 L513.665002,94.37 C513.665002,86.8099622 511.670022,80.9650207 507.680002,76.835 C503.689982,72.7049794 498.195037,70.64 491.195002,70.64 C484.194967,70.64 478.700022,72.7049794 474.710002,76.835 C470.719982,80.9650207 468.725002,86.8099622 468.725002,94.37 L468.725002,158 L433.025002,158 L433.025002,94.37 C433.025002,86.8099622 431.030022,80.9650207 427.040002,76.835 C423.049982,72.7049794 417.555037,70.64 410.555002,70.64 C403.554967,70.64 398.060022,72.7049794 394.070002,76.835 C390.079982,80.9650207 388.085002,86.8099622 388.085002,94.37 L388.085002,158 L352.175002,158 L352.175002,40.82 L388.085002,40.82 Z M620.485002,159.47 C603.404916,159.47 589.405056,153.975055 578.485002,142.985 C567.564947,131.994945 562.105002,117.400091 562.105002,99.2 C562.105002,80.999909 567.529947,66.5100539 578.380002,55.73 C589.230056,44.9499461 603.264915,39.56 620.485002,39.56 C637.705088,39.56 651.984945,44.8799468 663.325002,55.52 C674.665058,66.1600532 680.335002,80.9299055 680.335002,99.83 C680.335002,103.89002 680.055004,107.669982 679.495002,111.17 L598.855002,111.17 C599.555005,116.350026 601.864982,120.584984 605.785002,123.875 C609.705021,127.165016 613.939979,128.81 618.490002,128.81 C623.040024,128.81 626.43499,128.355005 628.675002,127.445 C630.915013,126.534995 632.559996,125.625005 633.610002,124.715 C634.660007,123.804995 636.024993,122.300011 637.705002,120.2 L676.555002,120.2 C673.194985,131.960059 666.475052,141.444964 656.395002,148.655 C646.314951,155.865036 634.345071,159.47 620.485002,159.47 Z M642.955002,88.7 C642.394999,83.2399727 640.015023,78.7950171 635.815002,75.365 C631.614981,71.9349828 626.64503,70.22 620.905002,70.22 C615.164973,70.22 610.335021,71.9349828 606.415002,75.365 C602.494982,78.7950171 600.045006,83.2399727 599.065002,88.7 L642.955002,88.7 Z M694.335001,158 L694.335001,2.6 L730.245001,2.6 L730.245001,158 L694.335001,158 Z M814.525,143.72 C804.304949,132.799945 799.195,118.450089 799.195,100.67 C799.195,82.8899111 804.304949,68.5400546 814.525,57.62 C824.745051,46.6999454 838.044918,41.24 854.425,41.24 C881.305135,41.24 898.384964,53.2798796 905.665,77.36 L889.915,77.36 C887.534988,69.6599615 883.300031,63.6750213 877.21,59.405 C871.11997,55.1349786 863.525046,53 854.425,53 C842.524941,53 832.865037,57.0949591 825.445,65.285 C818.024963,73.475041 814.315,85.2349233 814.315,100.565 C814.315,115.895077 818.024963,127.689959 825.445,135.95 C832.865037,144.210041 842.524941,148.34 854.425,148.34 C863.525046,148.34 871.11997,146.205021 877.21,141.935 C883.300031,137.664979 887.534988,131.680038 889.915,123.98 L905.665,123.98 C902.024982,134.900055 895.935043,143.649967 887.395,150.23 C878.854958,156.810033 867.865068,160.1 854.425,160.1 C838.044918,160.1 824.745051,154.640055 814.525,143.72 Z M971.535,148.34 C983.435059,148.34 993.724957,144.070043 1002.405,135.53 C1011.08504,126.989957 1015.425,115.335074 1015.425,100.565 C1015.425,85.7949261 1011.29504,74.1750423 1003.035,65.705 C994.774959,57.2349577 984.695059,53 972.795,53 C960.894941,53 950.95504,57.199958 942.975,65.6 C934.99496,74.000042 931.005,85.6899251 931.005,100.67 C931.005,115.650075 934.784962,127.339958 942.345,135.74 C949.905038,144.140042 959.634941,148.34 971.535,148.34 Z M971.535,160.1 C955.154918,160.1 941.820051,154.640055 931.53,143.72 C921.239949,132.799945 916.095,118.485089 916.095,100.775 C916.095,83.0649115 921.554945,68.715055 932.475,57.725 C943.395055,46.734945 957.044918,41.24 973.425,41.24 C989.805082,41.24 1003.45495,46.734945 1014.375,57.725 C1025.29505,68.715055 1030.755,82.9949122 1030.755,100.565 C1030.755,118.135088 1025.01506,132.449945 1013.535,143.51 C1002.05494,154.570055 988.055083,160.1 971.535,160.1 Z M1060.505,43.34 L1060.505,62.03 C1068.20504,48.1699307 1080.87491,41.24 1098.515,41.24 C1107.61505,41.24 1115.76996,43.4099783 1122.98,47.75 C1130.19004,52.0900217 1135.54498,58.459958 1139.045,66.86 C1142.96502,58.7399594 1148.59996,52.4400224 1155.95,47.96 C1163.30004,43.4799776 1171.73495,41.24 1181.255,41.24 C1193.99506,41.24 1204.63496,45.4049584 1213.175,53.735 C1221.71504,62.0650417 1225.985,74.0699216 1225.985,89.75 L1225.985,158 L1211.495,158 L1211.495,92.48 C1211.495,79.879937 1208.45003,70.2900329 1202.36,63.71 C1196.26997,57.1299671 1187.94005,53.84 1177.37,53.84 C1166.79995,53.84 1158.47003,57.1299671 1152.38,63.71 C1146.28997,70.2900329 1143.245,79.879937 1143.245,92.48 L1143.245,158 L1128.755,158 L1128.755,92.48 C1128.755,79.879937 1125.71003,70.2900329 1119.62,63.71 C1113.52997,57.1299671 1105.20005,53.84 1094.63,53.84 C1084.05995,53.84 1075.73003,57.1299671 1069.64,63.71 C1063.54997,70.2900329 1060.505,79.879937 1060.505,92.48 L1060.505,158 L1045.805,158 L1045.805,43.34 L1060.505,43.34 Z M1262.035,43.34 L1262.035,62.03 C1269.73504,48.1699307 1282.40491,41.24 1300.045,41.24 C1309.14504,41.24 1317.29996,43.4099783 1324.51,47.75 C1331.72004,52.0900217 1337.07498,58.459958 1340.575,66.86 C1344.49502,58.7399594 1350.12996,52.4400224 1357.48,47.96 C1364.83004,43.4799776 1373.26495,41.24 1382.785,41.24 C1395.52506,41.24 1406.16496,45.4049584 1414.705,53.735 C1423.24504,62.0650417 1427.515,74.0699216 1427.515,89.75 L1427.515,158 L1413.025,158 L1413.025,92.48 C1413.025,79.879937 1409.98003,70.2900329 1403.89,63.71 C1397.79997,57.1299671 1389.47005,53.84 1378.9,53.84 C1368.32995,53.84 1360.00003,57.1299671 1353.91,63.71 C1347.81997,70.2900329 1344.775,79.879937 1344.775,92.48 L1344.775,158 L1330.285,158 L1330.285,92.48 C1330.285,79.879937 1327.24003,70.2900329 1321.15,63.71 C1315.05997,57.1299671 1306.73005,53.84 1296.16,53.84 C1285.58995,53.84 1277.26003,57.1299671 1271.17,63.71 C1265.07997,70.2900329 1262.035,79.879937 1262.035,92.48 L1262.035,158 L1247.335,158 L1247.335,43.34 L1262.035,43.34 Z M1530.555,43.34 L1545.255,43.34 L1545.255,158 L1530.555,158 L1530.555,139.31 C1522.85496,153.170069 1510.18509,160.1 1492.545,160.1 C1479.80494,160.1 1469.16504,155.935042 1460.625,147.605 C1452.08496,139.274958 1447.815,127.270078 1447.815,111.59 L1447.815,43.34 L1462.305,43.34 L1462.305,108.86 C1462.305,121.460063 1465.34997,131.049967 1471.44,137.63 C1477.53003,144.210033 1485.85995,147.5 1496.43,147.5 C1507.00005,147.5 1515.32997,144.210033 1521.42,137.63 C1527.51003,131.049967 1530.555,121.460063 1530.555,108.86 L1530.555,43.34 Z M1582.355,43.34 L1582.355,62.03 C1590.05504,48.1699307 1602.72491,41.24 1620.365,41.24 C1633.10506,41.24 1643.74496,45.4049584 1652.285,53.735 C1660.82504,62.0650417 1665.095,74.0699216 1665.095,89.75 L1665.095,158 L1650.605,158 L1650.605,92.48 C1650.605,79.879937 1647.56003,70.2900329 1641.47,63.71 C1635.37997,57.1299671 1627.05005,53.84 1616.48,53.84 C1605.90995,53.84 1597.58003,57.1299671 1591.49,63.71 C1585.39997,70.2900329 1582.355,79.879937 1582.355,92.48 L1582.355,158 L1567.655,158 L1567.655,43.34 L1582.355,43.34 Z M1704.715,11 C1704.715,13.9400147 1703.70001,16.4599895 1701.67,18.56 C1699.63999,20.6600105 1697.12001,21.71 1694.11,21.71 C1691.09998,21.71 1688.54501,20.6600105 1686.445,18.56 C1684.34499,16.4599895 1683.295,13.905015 1683.295,10.895 C1683.295,7.88498495 1684.34499,5.3300105 1686.445,3.23 C1688.54501,1.1299895 1691.09998,0.08 1694.11,0.08 C1697.12001,0.08 1699.63999,1.1299895 1701.67,3.23 C1703.70001,5.3300105 1704.715,7.9199846 1704.715,11 Z M1686.445,158 L1686.445,43.34 L1701.145,43.34 L1701.145,158 L1686.445,158 Z M1774.575,54.89 L1742.865,54.89 L1742.865,130.91 C1742.865,136.650029 1743.98499,140.674988 1746.225,142.985 C1748.46501,145.295012 1752.45497,146.45 1758.195,146.45 L1774.575,146.45 L1774.575,158 L1755.045,158 C1737.12491,158 1728.165,148.97009 1728.165,130.91 L1728.165,54.89 L1712.205,54.89 L1712.205,43.34 L1728.165,43.34 L1728.165,14.57 L1742.865,14.57 L1742.865,43.34 L1774.575,43.34 L1774.575,54.89 Z M1818.395,156.32 L1772.825,43.34 L1788.575,43.34 L1826.375,140.78 L1864.175,43.34 L1879.085,43.34 L1811.045,211.34 L1796.135,211.34 L1818.395,156.32 Z" id="oatmel-community" fill="#000000"></path>
    </g>
</svg>