<?xml version="1.0" encoding="UTF-8"?>
<svg width="731px" height="158px" viewBox="0 0 731 158" version="1.1" xmlns="http://www.w3.org/2000/svg" xmlns:xlink="http://www.w3.org/1999/xlink">
    <!-- Generator: Sketch 44.1 (41455) - http://www.bohemiancoding.com/sketch -->
    <title>oatmel</title>
    <desc>Created with Sketch.</desc>
    <defs></defs>
    <g id="Page-1" stroke="none" stroke-width="1" fill="none" fill-rule="evenodd">
        <path d="M79.384102,119.25 C84.1441258,114.209975 86.524102,106.930048 86.524102,97.41 C86.524102,87.8899524 84.0741265,80.6450248 79.174102,75.675 C74.2740775,70.7049751 68.4641356,68.22 61.744102,68.22 C55.0240684,68.22 49.2491261,70.7049751 44.419102,75.675 C39.5890778,80.6450248 37.174102,87.8899524 37.174102,97.41 C37.174102,106.930048 39.6590771,114.209975 44.629102,119.25 C49.5991268,124.290025 55.4440684,126.81 62.164102,126.81 C68.8841356,126.81 74.6240782,124.290025 79.384102,119.25 Z M18.274102,140.88 C6.51404319,129.819945 0.634101988,115.26009 0.634101988,97.2 C0.634101988,79.1399097 6.51404319,64.6850542 18.274102,53.835 C30.0341608,42.9849458 44.5940152,37.56 61.954102,37.56 C79.3141888,37.56 93.8390435,42.9849458 105.529102,53.835 C117.21916,64.6850542 123.064102,79.1399097 123.064102,97.2 C123.064102,115.26009 117.25416,129.819945 105.634102,140.88 C94.0140439,151.940055 79.5241888,157.47 62.164102,157.47 C44.8040152,157.47 30.1741615,151.940055 18.274102,140.88 Z M208.464102,118.83 C213.644128,113.789975 216.234102,106.650046 216.234102,97.41 C216.234102,88.1699538 213.644128,81.0650248 208.464102,76.095 C203.284076,71.1249751 197.334135,68.64 190.614102,68.64 C183.894068,68.64 177.944128,71.1599748 172.764102,76.2 C167.584076,81.2400252 164.994102,88.3799538 164.994102,97.62 C164.994102,106.860046 167.584076,113.964975 172.764102,118.935 C177.944128,123.905025 183.894068,126.39 190.614102,126.39 C197.334135,126.39 203.284076,123.870025 208.464102,118.83 Z M143.994102,140.67 C133.63405,129.469944 128.454102,115.120088 128.454102,97.62 C128.454102,80.1199125 133.63405,65.7350564 143.994102,54.465 C154.354153,43.1949436 166.989027,37.56 181.899102,37.56 C196.809176,37.56 208.254062,43.0899447 216.234102,54.15 L216.234102,38.82 L252.144102,38.82 L252.144102,156 L216.234102,156 L216.234102,138.99 C207.554058,151.310062 195.934174,157.47 181.374102,157.47 C166.814029,157.47 154.354153,151.870056 143.994102,140.67 Z M324.314101,125.55 L337.124101,125.55 L337.124101,156 L318.854101,156 C305.694035,156 295.509137,153.095029 288.299101,147.285 C281.089065,141.474971 277.484101,131.500071 277.484101,117.36 L277.484101,68.64 L266.564101,68.64 L266.564101,38.82 L277.484101,38.82 L277.484101,10.26 L313.394101,10.26 L313.394101,38.82 L336.914101,38.82 L336.914101,68.64 L313.394101,68.64 L313.394101,117.36 C313.394101,122.820027 317.034065,125.55 324.314101,125.55 Z M388.504101,38.82 L388.504101,56.04 C395.924138,43.7199384 407.75402,37.56 423.994101,37.56 C432.674144,37.56 440.409067,39.5199804 447.199101,43.44 C453.989135,47.3600196 459.274082,52.9599636 463.054101,60.24 C467.394123,53.3799657 473.029066,47.8850207 479.959101,43.755 C486.889135,39.6249794 494.624058,37.56 503.164101,37.56 C517.444172,37.56 528.784059,41.9699559 537.184101,50.79 C545.584143,59.6100441 549.784101,71.8599216 549.784101,87.54 L549.784101,156 L514.084101,156 L514.084101,92.37 C514.084101,84.8099622 512.089121,78.9650207 508.099101,74.835 C504.109081,70.7049794 498.614136,68.64 491.614101,68.64 C484.614066,68.64 479.119121,70.7049794 475.129101,74.835 C471.139081,78.9650207 469.144101,84.8099622 469.144101,92.37 L469.144101,156 L433.444101,156 L433.444101,92.37 C433.444101,84.8099622 431.449121,78.9650207 427.459101,74.835 C423.469081,70.7049794 417.974136,68.64 410.974101,68.64 C403.974066,68.64 398.479121,70.7049794 394.489101,74.835 C390.499081,78.9650207 388.504101,84.8099622 388.504101,92.37 L388.504101,156 L352.594101,156 L352.594101,38.82 L388.504101,38.82 Z M620.9041,157.47 C603.824015,157.47 589.824155,151.975055 578.9041,140.985 C567.984046,129.994945 562.5241,115.400091 562.5241,97.2 C562.5241,78.999909 567.949046,64.5100539 578.7991,53.73 C589.649155,42.9499461 603.684014,37.56 620.9041,37.56 C638.124187,37.56 652.404044,42.8799468 663.7441,53.52 C675.084157,64.1600532 680.7541,78.9299055 680.7541,97.83 C680.7541,101.89002 680.474103,105.669982 679.9141,109.17 L599.2741,109.17 C599.974104,114.350026 602.284081,118.584984 606.2041,121.875 C610.12412,125.165016 614.359078,126.81 618.9091,126.81 C623.459123,126.81 626.854089,126.355005 629.0941,125.445 C631.334112,124.534995 632.979095,123.625005 634.0291,122.715 C635.079106,121.804995 636.444092,120.300011 638.1241,118.2 L676.9741,118.2 C673.614084,129.960059 666.894151,139.444964 656.8141,146.655 C646.73405,153.865036 634.76417,157.47 620.9041,157.47 Z M643.3741,86.7 C642.814098,81.2399727 640.434121,76.7950171 636.2341,73.365 C632.034079,69.9349828 627.064129,68.22 621.3241,68.22 C615.584072,68.22 610.75412,69.9349828 606.8341,73.365 C602.914081,76.7950171 600.464105,81.2399727 599.4841,86.7 L643.3741,86.7 Z M694.7541,156 L694.7541,0.6 L730.6641,0.6 L730.6641,156 L694.7541,156 Z" id="oatmel" fill="#000000"></path>
    </g>
</svg>