<?xml version="1.0" encoding="UTF-8"?>
<svg width="72px" height="90px" viewBox="0 0 72 90" version="1.1" xmlns="http://www.w3.org/2000/svg" xmlns:xlink="http://www.w3.org/1999/xlink">
    <!-- Generator: Sketch 44.1 (41455) - http://www.bohemiancoding.com/sketch -->
    <title>noun_oatmeal_1937375 (1)</title>
    <desc>Created with Sketch.</desc>
    <defs></defs>
    <g id="Page-1" stroke="none" stroke-width="1" fill="none" fill-rule="evenodd">
        <g id="noun_oatmeal_1937375-(1)" fill-rule="nonzero" fill="#000000">
            <g id="Group">
                <path d="M58.88,67.66 C51.74,67.66 45.94,71.19 44.33,76.08 L3,76.08 C1.48121694,76.08 0.25,77.3112169 0.25,78.83 C0.25,80.3487831 1.48121694,81.58 3,81.58 L44.33,81.58 C45.94,86.47 51.74,90 58.88,90 C67.8,90 71.79,84.39 71.79,78.83 C71.79,73.27 67.8,67.66 58.88,67.66 Z M58.88,84.5 C53.81,84.5 49.37,81.85 49.37,78.83 C49.37,75.81 53.81,73.16 58.88,73.16 C63.52,73.16 66.29,75.28 66.29,78.83 C66.29,82.38 63.52,84.5 58.88,84.5 Z" id="Shape" opacity="0.237941576"></path>
                <path d="M27.83,67 L44.17,67 C51.4853856,67.000012 58.5004239,64.0905685 63.6684908,58.9131222 C68.8365577,53.7356758 71.7332766,46.7153736 71.72,39.4 L71.72,23.07 C71.7200897,21.5628559 70.5070544,20.3364416 69,20.32 L67.2,20.32 C66.6388329,13.724127 61.1197009,8.6569554 54.5,8.66 C54.0690085,8.65838175 53.6382857,8.68175431 53.21,8.73 C50.1199372,4.69657775 44.9286501,2.88493253 40,4.12 C36.4310692,0.747392232 31.4280477,-0.647351801 26.6290278,0.392435842 C21.8300079,1.43222349 17.8529407,4.7726534 16,9.32 C10.1589464,9.85104643 5.53104643,14.4789464 5,20.32 L3,20.32 C1.48121694,20.32 0.25,21.5512169 0.25,23.07 L0.25,39.4 C0.236709645,46.7205748 3.13754315,53.7454336 8.31210324,58.9237461 C13.4866633,64.1020586 20.5094175,67.0079837 27.83,67 L27.83,67 Z M29.7,5.52 C32.535089,5.5132589 35.2201129,6.79324285 37,9 C37.7748718,9.96171882 39.0958432,10.2888944 40.23,9.8 C41.1312535,9.40445576 42.1057898,9.20341506 43.09,9.21 C45.7614585,9.20802483 48.2156729,10.6813228 49.47,13.04 C50.0728199,14.1686197 51.3743987,14.7323608 52.61,14.4 C54.5955448,13.8571108 56.7186003,14.1925147 58.4400911,15.3210475 C60.1615818,16.4495804 61.3159193,18.2626897 61.61,20.3 L21.19,20.3 C22.0802473,17.1765625 25.211368,15.2527255 28.4,15.87 C29.8939302,16.1461423 31.3288576,15.1589302 31.6049999,13.665 C31.8811423,12.1710698 30.8939302,10.7361424 29.4,10.46 C26.3814162,9.88442669 23.2575076,10.5163898 20.7,12.22 C21.8719773,8.23077189 25.5422352,5.49846875 29.7,5.52 Z M17.09,14.77 C17.2831983,14.7597804 17.4768017,14.7597804 17.67,14.77 L18,14.77 C16.8397994,16.2447439 16.0509864,17.9767031 15.7,19.82 C15.7,19.97 15.7,20.13 15.64,20.29 L10.64,20.29 C11.1681367,17.1300174 13.8863644,14.8037202 17.09,14.77 Z M5.78,25.82 L66.22,25.82 L66.22,39.4 C66.2090694,51.5554682 56.3753933,61.4159633 44.22,61.46 L27.83,61.46 C15.6746067,61.4159633 5.84093062,51.5554682 5.83,39.4 L5.78,25.82 Z" id="Shape" opacity="0.251358696"></path>
            </g>
        </g>
    </g>
</svg>